<?xml version="1.0" standalone="no"?><!DOCTYPE svg PUBLIC "-//W3C//DTD SVG 1.1//EN" "http://www.w3.org/Graphics/SVG/1.1/DTD/svg11.dtd"><svg class="icon" width="200px" height="200.00px" viewBox="0 0 1024 1024" version="1.1" xmlns="http://www.w3.org/2000/svg"><path fill="#ffffff" d="M192 832m-32 0a32 32 0 1 0 64 0 32 32 0 1 0-64 0ZM174.6 973.2c-3.2 0-6.6-0.2-9.8-0.4-4.6-0.4-9.2-0.8-13.6-1.6-4.6-0.8-9-1.8-13.4-3s-8.8-2.8-13-4.4c-4.2-1.6-8.4-3.6-12.6-5.8-4-2.2-8-4.4-12-7-3.8-2.6-7.6-5.2-11.2-8.2-3.6-2.8-7-6-10.2-9.2-3.2-3.2-6.4-6.6-9.2-10.2-2.8-3.6-5.6-7.2-8.2-11.2-2.6-3.8-4.8-7.8-7-12-2.2-4-4-8.2-5.8-12.6-1.6-4.2-3.2-8.6-4.4-13-1.2-4.4-2.2-9-3-13.4-0.8-4.6-1.4-9.2-1.6-13.6-0.4-4.6-0.4-9.2-0.2-13.8 0.2-4.6 0.6-9.2 1.2-13.8 0.6-4.6 1.4-9.2 2.6-13.6 1-4.4 2.4-9 3.8-13.2 1.6-4.4 3.2-8.6 5.2-12.8 2-4.2 4.2-8.2 6.4-12.2 2.4-4 5-7.8 7.6-11.4 2.8-3.6 5.6-7.2 8.8-10.6 3-3.4 6.4-6.6 9.6-9.6L435.8 416c1.2-1 2.2-2.2 3-3.2 1-1.2 1.8-2.4 2.6-3.8s1.6-2.6 2.2-4c0.6-1.4 1.2-2.8 1.6-4.4 0.4-1.4 0.8-3 1-4.6 0.2-1.6 0.4-3 0.4-4.6 0-1.6-0.2-3-0.4-4.6-0.2-1.6-0.6-3-1-4.6-31.4-111.6-12-212.8 53.2-277.4C574 30 694.2 6.6 791 48.2c5.4 2.4 10.2 6 13.8 10.6 3.8 4.6 6.2 10.2 7.2 16 1 5.6 0.6 11.8-1.2 17.4-1.8 5.4-4.8 10.4-8.8 14.4l-126.8 126.8c-0.8 0.8-1.4 1.6-2.2 2.4-0.8 0.8-1.4 1.8-2 2.6-0.6 1-1.2 1.8-1.8 2.8-0.6 1-1 2-1.4 3-0.4 1-0.8 2-1.2 3.2-0.4 1-0.6 2.2-0.8 3.2s-0.4 2.2-0.4 3.2c-0.2 1-0.2 2.2-0.2 3.2s0 2.2 0.2 3.4c0.2 1 0.2 2.2 0.4 3.2s0.4 2.2 0.8 3.2 0.6 2.2 1.2 3.2c0.4 1 0.8 2 1.4 3 0.6 1 1 2 1.6 2.8 0.6 1 1.2 1.8 2 2.6s1.4 1.6 2.2 2.4l56 56c0.8 0.6 1.6 1.4 2.4 2.2 0.8 0.6 1.8 1.4 2.6 2 1 0.6 1.8 1.2 2.8 1.8 1 0.6 2 1 3 1.4 1 0.4 2 0.8 3.2 1.2 1 0.4 2.2 0.6 3.2 0.8 1 0.2 2.2 0.4 3.2 0.4 2.2 0.2 4.4 0.2 6.6 0 1-0.2 2.2-0.2 3.2-0.4s2.2-0.4 3.2-0.8 2.2-0.6 3.2-1.2c1-0.4 2-0.8 3-1.4 1-0.6 2-1 2.8-1.6 1-0.6 1.8-1.2 2.6-2 0.8-0.6 1.6-1.4 2.4-2.2l127.4-127.6c4-4 9-7 14.4-8.8 5.4-1.8 11.2-2.2 16.6-1.2 5.6 1 11 3.2 15.6 6.6 4.4 3.2 8.2 7.8 10.8 12.8l0.2 0.4c19.6 40.2 25.4 94.2 16 148.4-10 57.4-35.8 109.2-72.8 145.6-64.2 63.4-164.2 82.8-274.4 53.2-1.4-0.4-2.8-0.6-4.4-0.8-1.6-0.2-3-0.2-4.6-0.2-1.6 0-3 0.2-4.6 0.4-1.6 0.2-3 0.6-4.4 1-1.4 0.4-2.8 1-4.2 1.6-1.4 0.6-2.8 1.4-4 2.2-1.2 0.8-2.6 1.6-3.6 2.6s-2.2 2-3.4 3.2L275.6 928c-3 3.4-6.2 6.6-9.4 9.6-3.4 3-7 6-10.6 8.8-3.6 2.8-7.6 5.4-11.4 7.6-4 2.4-8 4.6-12.2 6.4-4.2 2-8.4 3.6-12.8 5.2s-8.8 2.8-13.2 3.8c-4.4 1-9 2-13.6 2.6-4.6 0.6-9.2 1-13.8 1.2h-4zM689.4 95.4c-12.8 0-25.8 1.2-38.6 3.6-40.6 7.6-76.8 26.2-104.8 53.8-67.2 66.6-47.4 170-35.8 211.2 1.2 4.4 2.2 9 2.8 13.6s1 9.2 1 13.8c0 4.6-0.4 9.2-1 13.8-0.6 4.6-1.6 9.2-2.8 13.6-1.2 4.4-2.8 8.8-4.6 13-1.8 4.2-4 8.4-6.4 12.2-2.4 4-5.2 7.8-8 11.4-3 3.6-6.2 7-9.6 10l-0.2 0.2L129.6 787.2c-1.8 1.6-3.4 3.2-5 4.8-1.6 1.6-3 3.4-4.4 5.4-1.4 1.8-2.6 3.8-3.8 5.8-1.2 2-2.2 4-3.2 6.2-1 2-1.8 4.2-2.6 6.4s-1.4 4.4-2 6.6c-0.6 2.2-1 4.6-1.2 6.8-0.4 2.2-0.4 4.6-0.6 6.8 0 2.2 0 4.6 0.2 7 0.2 2.2 0.4 4.6 0.8 6.8s1 4.6 1.6 6.8c0.6 2.2 1.4 4.4 2.2 6.6 0.8 2.2 1.8 4.2 2.8 6.2 1 2 2.2 4 3.6 6 1.2 2 2.6 3.8 4 5.6a56.964 56.964 0 0 0 9.8 9.8c1.8 1.4 3.6 2.8 5.6 4 2 1.2 4 2.4 6 3.4s4.2 2 6.2 2.8c2.2 0.8 4.4 1.6 6.6 2.2 2.2 0.6 4.4 1.2 6.8 1.6 2.2 0.4 4.6 0.6 6.8 0.8 2.2 0.2 4.6 0.2 7 0.2 2.2 0 4.6-0.2 7-0.6 2.2-0.4 4.6-0.8 6.8-1.2 2.2-0.6 4.4-1.2 6.6-2 2.2-0.8 4.4-1.6 6.4-2.6s4.2-2 6.2-3.2c2-1.2 3.8-2.4 5.8-3.8 1.8-1.4 3.6-2.8 5.4-4.4 1.6-1.6 3.4-3.2 4.8-5l0.4-0.4 324.6-352.2c3.2-3.4 6.6-6.6 10-9.4s7.2-5.6 11.2-8c3.8-2.4 8-4.6 12-6.4 4.2-1.8 8.4-3.4 12.8-4.6 4.4-1.2 8.8-2.2 13.4-2.8 4.4-0.6 9-1 13.6-1s9.2 0.2 13.6 0.8c4.4 0.6 9 1.4 13.4 2.6 41 11 143.2 29.4 209.6-36 43.8-43 61.6-113.6 56-169.4l-89.2 89.2c-2.4 2.4-4.8 4.6-7.4 6.6-2.6 2-5.2 4-8 5.8-2.8 1.8-5.6 3.6-8.6 5-2.8 1.6-6 3-9 4.2-3 1.2-6.2 2.4-9.4 3.4s-6.4 1.8-9.6 2.4c-3.2 0.6-6.6 1.2-9.8 1.4-6.6 0.6-13.2 0.6-19.8 0-3.2-0.4-6.6-0.8-9.8-1.4-3.2-0.6-6.4-1.4-9.6-2.4-3.2-1-6.2-2-9.4-3.4-3-1.2-6-2.6-9-4.2s-5.8-3.2-8.6-5c-2.8-1.8-5.4-3.8-8-5.8-2.6-2-5-4.4-7.4-6.6l-56.2-56.2c-2.4-2.4-4.6-4.8-6.8-7.4-2-2.6-4-5.2-5.8-8-1.8-2.8-3.6-5.6-5-8.6-1.6-2.8-3-6-4.2-9-1.2-3-2.4-6.2-3.4-9.4s-1.8-6.4-2.4-9.6c-0.6-3.2-1.2-6.6-1.4-9.8-0.4-3.4-0.4-6.6-0.4-10s0.2-6.6 0.4-9.8c0.4-3.4 0.8-6.6 1.4-9.8 0.6-3.2 1.4-6.4 2.4-9.6 1-3.2 2-6.2 3.4-9.4 1.2-3 2.6-6 4.2-9s3.2-5.8 5-8.6c1.8-2.8 3.8-5.4 5.8-8 2-2.6 4.4-5 6.6-7.4L716 97.2c-8.6-1.2-17.6-1.8-26.6-1.8z m113.6 265.6z" /></svg>