<?xml version="1.0" standalone="no"?><!DOCTYPE svg PUBLIC "-//W3C//DTD SVG 1.1//EN" "http://www.w3.org/Graphics/SVG/1.1/DTD/svg11.dtd"><svg class="icon" width="200px" height="200.00px" viewBox="0 0 1024 1024" version="1.1" xmlns="http://www.w3.org/2000/svg"><path fill="#ffffff" d="M560.472 76.344l304.58 175.85a96.944 96.944 0 0 1 48.473 83.956v351.7a96.944 96.944 0 0 1-48.472 83.956l-304.581 175.85a96.944 96.944 0 0 1-96.944 0l-304.58-175.85a96.944 96.944 0 0 1-48.473-83.956v-351.7a96.944 96.944 0 0 1 48.472-83.956l304.581-175.85a96.944 96.944 0 0 1 96.944 0z m-66.944 51.962l-304.58 175.85a36.944 36.944 0 0 0-18.473 31.994v351.7a36.944 36.944 0 0 0 18.472 31.994l304.581 175.85a36.944 36.944 0 0 0 36.944 0l304.58-175.85a36.944 36.944 0 0 0 18.473-31.994v-351.7a36.944 36.944 0 0 0-18.472-31.994l-304.581-175.85a36.944 36.944 0 0 0-36.944 0z m168.686 261.733c14.338-8.303 32.692-3.41 40.995 10.927 8.303 14.338 3.411 32.692-10.927 40.995L542 528.987 542 705.451c0 16.569-13.431 30-30 30-16.569 0-30-13.431-30-30V529.293l-150.282-87.026c-14.338-8.302-19.23-26.657-10.927-40.995 8.303-14.338 26.657-19.23 40.995-10.927l149.95 86.834z"  /></svg>