<?xml version="1.0" standalone="no"?><!DOCTYPE svg PUBLIC "-//W3C//DTD SVG 1.1//EN" "http://www.w3.org/Graphics/SVG/1.1/DTD/svg11.dtd"><svg class="icon" width="200px" height="200.00px" viewBox="0 0 1024 1024" version="1.1" xmlns="http://www.w3.org/2000/svg"><path fill="#ffffff" d="M295.1168 779.589632l419.84-601.088c7.508992-10.24 17.579008-14.848 30.208-13.824 12.628992 1.024 21.504 7.168 26.624 18.432s4.267008 22.358016-2.56 33.28l-440.32 627.712c-5.460992 7.510016-12.628992 12.118016-21.504 13.824-8.875008 1.707008-17.067008-0.169984-24.576-5.632l-236.544-177.152c-6.827008-5.460992-10.923008-12.628992-12.288-21.504-1.364992-8.873984 0.683008-17.065984 6.144-24.576 5.460992-7.508992 12.628992-11.776 21.504-12.8s17.067008 1.195008 24.576 6.656l208.896 156.672z m465.92-313.344c-9.556992 0-17.408-3.072-23.552-9.216s-9.216-13.993984-9.216-23.552c0-9.556992 3.072-17.408 9.216-23.552s13.995008-9.216 23.552-9.216h196.608c9.556992 0 17.408 3.072 23.552 9.216s9.216 13.995008 9.216 23.552c0 9.558016-3.072 17.408-9.216 23.552s-13.995008 9.216-23.552 9.216h-196.608z m-131.072 196.608c-9.556992 0-17.408-3.072-23.552-9.216s-9.216-13.993984-9.216-23.552c0-9.556992 3.072-17.408 9.216-23.552s13.995008-9.216 23.552-9.216h327.68c9.556992 0 17.408 3.072 23.552 9.216s9.216 13.995008 9.216 23.552c0 9.558016-3.072 17.408-9.216 23.552s-13.995008 9.216-23.552 9.216h-327.68z m-131.072 196.608c-9.556992 0-17.408-3.072-23.552-9.216s-9.216-13.993984-9.216-23.552c0-9.556992 3.072-17.408 9.216-23.552s13.995008-9.216 23.552-9.216h458.752c9.556992 0 17.408 3.072 23.552 9.216s9.216 13.995008 9.216 23.552c0 9.558016-3.072 17.408-9.216 23.552s-13.995008 9.216-23.552 9.216h-458.752z" /></svg>