<?xml version="1.0" standalone="no"?><!DOCTYPE svg PUBLIC "-//W3C//DTD SVG 1.1//EN" "http://www.w3.org/Graphics/SVG/1.1/DTD/svg11.dtd"><svg class="icon" width="200px" height="200.00px" viewBox="0 0 1024 1024" version="1.1" xmlns="http://www.w3.org/2000/svg"><path fill="#ffffff" d="M703.5 847c-19.9 0-44.4-27.5-48.9-48.7l-0.3-1.3-0.9-1c-6.7-7.4-12.6-15.4-17.6-24.1-9-16.2-9.8-28.2-2.2-35.7 3-3.3 7.3-5.2 11.7-5.3 11.5 0 23.7 13.4 27.4 18.5l8.8 12.1v-67.3c0.4-11.9 10.1-21.4 22-21.4s21.6 9.5 22 21.4v31H784.4s1.1-0.1 2.9-0.1c9.5-0.1 18.8 2.4 26.9 7.2 12.3 7.8 18.5 21.5 18.5 40.7v27.2c-0.3 12.6-5.8 24.5-15.3 32.9-9 8.6-21 13.6-33.5 13.9h-80.4z m-483.7 0c-11.7-0.2-21-9.8-20.9-21.5V195.7c-0.2-11.7 9.2-21.3 20.9-21.5h411.3c5.5 0 10.8 2.3 14.7 6.3l0.2 0.2 154.2 131.2c3.9 4 6.1 9.4 6.1 15.1v289c0 11.6-16.9 20.9-28.5 20.9-11.5 0-28.5-9.4-28.5-20.9V349l-72.4-0.4c-26.5 0-48.1-21.2-48.8-47.8v-66.9H256v554.8h270.9c11.6 0.3 20.8 17.6 20.8 29.3 0 11.6-9.2 28.9-20.8 29.3H219.8zM584 568.9l67.5-60.5-65.9-59.1 27.9-32.1 83.7 75c4.5 4.2 7.1 10 7.1 16.2 0 6.2-2.6 12-7.1 16.2L611.9 601 584 568.9z m-271.1-44.3c-4.6-4.2-7.1-10-7.1-16.2 0-6.2 2.6-12.1 7.1-16.2l83.7-75 27.9 32.1-65.9 59.1 67.5 60.5-27.9 32.1-85.3-76.4zM443 574.8l86.3-151.4 36.4 21.4-86.2 151.5-36.5-21.5z m0 0" /></svg>